<?xml version="1.0" encoding="UTF-8"?><svg xmlns="http://www.w3.org/2000/svg" xmlns:xlink="http://www.w3.org/1999/xlink" viewBox="0 0 928.9 1092.7"><defs><style>.cls-1{fill:url(#linear-gradient-12);}.cls-1,.cls-2,.cls-3,.cls-4,.cls-5,.cls-6,.cls-7,.cls-8,.cls-9,.cls-10,.cls-11,.cls-12,.cls-13,.cls-14,.cls-15,.cls-16,.cls-17,.cls-18,.cls-19,.cls-20,.cls-21,.cls-22,.cls-23,.cls-24{stroke-width:0px;}.cls-2{fill:url(#linear-gradient-17);}.cls-3{fill:url(#linear-gradient);}.cls-4{fill:url(#linear-gradient-6);}.cls-5{fill:url(#linear-gradient-15);}.cls-6{fill:url(#linear-gradient-11);}.cls-7{fill:url(#linear-gradient-5);}.cls-8{fill:none;}.cls-25{clip-path:url(#clippath-1);}.cls-9{fill:url(#linear-gradient-13);}.cls-10,.cls-19{fill:#151c2b;}.cls-11{fill:url(#linear-gradient-16);}.cls-12{fill:url(#linear-gradient-14);}.cls-13{fill:url(#linear-gradient-2);}.cls-14{fill:url(#linear-gradient-7);}.cls-15{fill:url(#linear-gradient-3);}.cls-26{clip-path:url(#clippath);}.cls-16{fill:url(#linear-gradient-9);}.cls-17{fill:url(#linear-gradient-8);}.cls-18{fill:#fff;}.cls-19{opacity:.5;}.cls-20{fill:url(#linear-gradient-10);}.cls-21{fill:url(#radial-gradient);opacity:.7;}.cls-22{fill:url(#linear-gradient-4);}.cls-23{fill:#7a1123;}.cls-24{fill:#525a6a;}</style><linearGradient id="linear-gradient" x1="478.45" y1="210.32" x2="478.45" y2="1385.45" gradientUnits="userSpaceOnUse"><stop offset=".02" stop-color="#eb0037"/><stop offset=".99" stop-color="#151c2b"/></linearGradient><clipPath id="clippath"><polygon class="cls-8" points="121.5 392.5 467.9 192.7 813.9 392.5 813.9 792.2 468 992 121.5 792.2 121.5 392.5"/></clipPath><linearGradient id="linear-gradient-2" x1="133.69" y1="1059.92" x2="884.83" y2="645.4" gradientUnits="userSpaceOnUse"><stop offset=".02" stop-color="#151c2b"/><stop offset=".99" stop-color="#151c2b" stop-opacity="0"/></linearGradient><linearGradient id="linear-gradient-3" x1="275.66" y1="237.48" x2="451.21" y2="572.52" gradientUnits="userSpaceOnUse"><stop offset=".01" stop-color="#eb0037" stop-opacity="0"/><stop offset=".16" stop-color="rgba(235,0,55,.24)" stop-opacity=".24"/><stop offset=".32" stop-color="rgba(235,0,55,.47)" stop-opacity=".47"/><stop offset=".48" stop-color="rgba(235,0,55,.66)" stop-opacity=".66"/><stop offset=".63" stop-color="rgba(235,0,55,.81)" stop-opacity=".81"/><stop offset=".77" stop-color="rgba(235,0,55,.91)" stop-opacity=".91"/><stop offset=".9" stop-color="rgba(235,0,55,.98)" stop-opacity=".98"/><stop offset="1" stop-color="#eb0037"/></linearGradient><linearGradient id="linear-gradient-4" x1="68.55" y1="592.35" x2="474.84" y2="592.35" xlink:href="#linear-gradient-3"/><linearGradient id="linear-gradient-5" x1="1712.86" y1="-932.46" x2="1867.33" y2="-608.21" gradientTransform="translate(1682.69 2164.79) rotate(-111.03)" gradientUnits="userSpaceOnUse"><stop offset=".01" stop-color="#ecbb0a" stop-opacity="0"/><stop offset=".09" stop-color="rgba(236,187,10,.12)" stop-opacity=".12"/><stop offset=".28" stop-color="rgba(236,187,10,.38)" stop-opacity=".38"/><stop offset=".46" stop-color="rgba(236,187,10,.6)" stop-opacity=".6"/><stop offset=".62" stop-color="rgba(236,187,10,.78)" stop-opacity=".78"/><stop offset=".77" stop-color="rgba(236,187,10,.9)" stop-opacity=".9"/><stop offset=".9" stop-color="rgba(236,187,10,.97)" stop-opacity=".97"/><stop offset="1" stop-color="#ecbb0a"/></linearGradient><linearGradient id="linear-gradient-6" x1="2488.2" y1="451.37" x2="2711.81" y2="773.05" gradientTransform="translate(3278.37 288.32) rotate(-169.34) scale(1 -1)" xlink:href="#linear-gradient-3"/><linearGradient id="linear-gradient-7" x1="2280.32" y1="660.85" x2="2441.05" y2="998.24" gradientTransform="translate(2783.03 1866.52) rotate(-127.89) scale(1 -1)" xlink:href="#linear-gradient-3"/><linearGradient id="linear-gradient-8" x1="1823.13" y1="753.88" x2="2103.2" y2="1016.07" gradientTransform="translate(1191.11 2820.15) rotate(-79.3) scale(1 -1)" xlink:href="#linear-gradient-3"/><linearGradient id="linear-gradient-9" x1="1985.49" y1="292.6" x2="2146.23" y2="630" gradientTransform="translate(-1600.34 -314.93) rotate(41.43) scale(1 -1)" xlink:href="#linear-gradient-3"/><linearGradient id="linear-gradient-10" x1="2265.02" y1="641.93" x2="2426.3" y2="980.46" gradientTransform="translate(-1072.19 2674.93) rotate(-29.95) scale(1 -1)" xlink:href="#linear-gradient-3"/><linearGradient id="linear-gradient-11" x1="634.82" y1="305.24" x2="806.1" y2="305.24" gradientUnits="userSpaceOnUse"><stop offset="0" stop-color="#223654"/><stop offset=".99" stop-color="#151c2b"/></linearGradient><linearGradient id="linear-gradient-12" x1="519.39" y1="373.97" x2="824.72" y2="373.97" gradientUnits="userSpaceOnUse"><stop offset="0" stop-color="#d4d8df"/><stop offset=".46" stop-color="#727c92"/><stop offset="1" stop-color="#d4d8df"/></linearGradient><clipPath id="clippath-1"><path class="cls-8" d="M537.13,334.31l254.96,125.39c.83.23,13.37,3.43,20.92-4.35,4.17-4.3,4.63-9.68,4.72-10.84.95-11.12-9.44-23.21-25.65-30.78-84.99-41.8-169.97-83.59-254.96-125.39-9.36-2.13-18.74-.69-22.91,4.95-6.61,8.92,2.91,24.12,8.61,30.62,5.03,5.74,10.71,8.81,14.3,10.41Z"/></clipPath><linearGradient id="linear-gradient-13" x1="635.75" y1="327.76" x2="102.06" y2="1170.53" gradientUnits="userSpaceOnUse"><stop offset="0" stop-color="#d4d8df"/><stop offset=".62" stop-color="#727c92"/><stop offset="1" stop-color="#d4d8df"/></linearGradient><linearGradient id="linear-gradient-14" x1="766.5" y1="148.55" x2="863.04" y2="284.4" xlink:href="#linear-gradient-13"/><linearGradient id="linear-gradient-15" x1="716.07" y1="273.69" x2="234" y2="884.82" gradientUnits="userSpaceOnUse"><stop offset="0" stop-color="#d4d8df"/><stop offset=".62" stop-color="#727c92"/></linearGradient><linearGradient id="linear-gradient-16" x1="727.41" y1="352.84" x2="375.35" y2="756.99" gradientUnits="userSpaceOnUse"><stop offset=".12" stop-color="#727c92"/><stop offset="1" stop-color="#727c92" stop-opacity="0"/></linearGradient><linearGradient id="linear-gradient-17" x1="651.81" y1="354.36" x2="154.95" y2="919.93" xlink:href="#linear-gradient-16"/><radialGradient id="radial-gradient" cx="541.4" cy="514.42" fx="541.4" fy="514.42" r="88.42" gradientTransform="translate(-142.52 175.65) scale(1.26 .66)" gradientUnits="userSpaceOnUse"><stop offset="0" stop-color="#02adef"/><stop offset=".07" stop-color="rgba(2,173,239,.91)" stop-opacity=".91"/><stop offset=".42" stop-color="rgba(2,173,239,.53)" stop-opacity=".53"/><stop offset=".7" stop-color="rgba(2,173,239,.24)" stop-opacity=".24"/><stop offset=".9" stop-color="rgba(2,173,239,.07)" stop-opacity=".07"/><stop offset="1" stop-color="#02adef" stop-opacity="0"/></radialGradient></defs><g id="Layer_1"><g id="Layer_1-2"><g id="Layer_4"><polygon class="cls-3" points="491.8 161 100.4 366.2 100.4 792 482.8 1022 856.5 801.6 847.5 373.2 491.8 161"/></g></g><g id="Layer_14_copy"><path class="cls-23" d="M707.4,853.7c1.2,2.3,2.2,3.6,2.9,4.4,5.1-2.8,10.3-9.1,12.7-12.1.7-.8,1.3-1.7,2-2.5l-17.6,10.2ZM572.9,937.2c-.8,1.3-1.7,2.7-2.5,4.1,3,1,5.6,3.3,6.9,6.5.7,1.5,1,3.1,1,4.7,3.6-5.8,7.8-11,12.9-15.8,7.4-8.7,14.3-18.5,20.9-28l-32.9,19c-2,3-4.2,6.1-6.3,9.5ZM360.5,930.1l-32.8-19c6.1,8.7,12.4,17.6,19.2,25.5,2.7,2.5,5.2,5.2,7.4,8l6.2,3.7c.1-.2.2-.4.2-.6,1.3-3.1,3.9-5.4,6.9-6.5-.8-1.4-1.6-2.8-2.5-4.1-1.5-2.4-3-4.7-4.6-7ZM227.9,858.2c.6-.7,1.3-1.7,2.2-3.3l-14.8-8.5c2.5,2.9,7.7,9.1,12.6,11.8ZM719.2,260.4l-5.5-3.2-245.9-141.9-244.1,141-5.2,3-163.9,94.6v477l148.9,85.9,62.5,36.1,77.7,44.8,37.6,21.7,31.3,18.1,30.1,17.4,25.2,14.5,26.1-15.1,31.4-18.1,31.7-18.3,38-21.9,79.4-45.8,61.5-35.5,145-83.9v-477l-161.8-93.4ZM707.4,853.7l-29.2,16.9-2.7,1.6-63.2,36.5-32.9,19-109.1,63-1.9,1.1-.4.2-107.3-61.9-32.8-19-65.9-37.9-2.7-1.6-29.2-16.8-14.8-8.5-62-35.8-31.8-18.3v-399.7l113.8-65.7,36.3-20.9,196.3-113.2,197.9,114.3,36.3,20.9,111.8,64.6v399.7l-27.3,15.8-61.7,35.6-17.5,10.1ZM215.4,846.3c2.5,3,7.6,9.2,12.5,11.8.6-.7,1.3-1.7,2.2-3.3l-14.7-8.5ZM365.2,937.2c-1.6-2.5-3.1-4.8-4.7-7.1l-32.8-19c6.1,8.7,12.4,17.6,19.2,25.5,2.7,2.5,5.2,5.2,7.4,8l6.2,3.7c.1-.2.2-.4.2-.6,1.3-3.1,3.9-5.4,6.9-6.5-.7-1.3-1.6-2.7-2.4-4ZM579.3,927.7c-2.1,3-4.2,6.2-6.4,9.5-.8,1.3-1.7,2.7-2.5,4.1,3,1,5.6,3.3,6.9,6.5.7,1.5,1,3.1,1,4.7,3.6-5.8,7.8-11,12.9-15.8,7.4-8.7,14.3-18.5,20.9-28l-32.8,19ZM707.4,853.7c1.2,2.3,2.2,3.6,2.9,4.4,5.1-2.8,10.3-9.1,12.7-12.1.7-.8,1.3-1.7,2-2.5l-17.6,10.2Z"/></g><g class="cls-26"><path class="cls-13" d="M956.22,640.73c2.93-11.44-14.66-23.82-39.27-27.64-23.32-3.62-44.57,1.74-49.23,12.04h0s-.1.25-.1.25c-.1.23-.19.45-.27.69l-3.62,9.24h0c-.13.35-.24.7-.33,1.05-.68,2.64-.24,5.33,1.13,7.95-15.71,2.24-38.55,6.69-62.46,16.12-20.67,8.15-35.45,17.38-45.58,25.04-26.8-11.93-53.6-23.86-80.4-35.79-7.76-2.04-15.99-2.24-20.28.25-.51.3-.94.63-1.31.98-1.15.29-2.18.68-3.04,1.18-6.79,3.94-.54,12.74,3.54,16.67,3.6,3.47,8.08,5.63,10.96,6.81l46.38,20.64-432.44,218.16,22.53,10.3h0l16.15,7.38h0l26.57,12.15,452.84-209.87,70.95,31.58c.68.2,11.04,3.12,18.5-.14,1.05-.46,1.9-.98,2.6-1.51.6-.18,1.19-.39,1.76-.64,4.11-1.8,5.18-4.53,5.42-5.12,2.21-5.64-5.18-12.93-18.13-18.46-20.8-9.26-41.61-18.52-62.41-27.78,17.33-4.75,39.24-12.51,59.71-25.25,12.71-7.9,21.91-15.89,28.55-22.79,23.09,3.05,43.66-2.65,47.36-13.14h0s3.11-8.11,3.11-8.11c.37-.72.66-1.46.85-2.23Z"/></g></g><g id="SWORD2"><polygon class="cls-15" points="474.84 590.43 191.33 281.05 355.24 184.82 474.84 590.43"/><polygon class="cls-22" points="474.84 590.43 68.55 699.7 69.49 485 474.84 590.43"/><polygon class="cls-7" points="462.28 618.45 207.09 918.03 172.11 900.22 462.28 618.45"/><polygon class="cls-4" points="474.84 590.43 825.23 330.66 653.2 232.88 474.84 590.43"/><polygon class="cls-14" points="474.84 590.43 873.95 476.46 871.83 437.83 474.84 590.43"/><polygon class="cls-17" points="474.84 590.43 707.4 911.1 873.95 826 474.84 590.43"/><polygon class="cls-16" points="439.62 592.35 68.55 778.31 77.78 815.87 439.62 592.35"/><polygon class="cls-20" points="474.89 590.39 578.62 1005.5 631.89 962.72 474.89 590.39"/></g><g id="SWORD"><path class="cls-10" d="M856.5,204.62l-7.71-.73c-8.77-13.05-26.05-22.61-46-23.83-18.31-1.12-34.48,5.07-43.93,15.36l-6.99-.66-1.71,20.05h0c-.05.68-.08,1.37-.08,2.06-.16,22.09,23.19,41.43,52.14,43.2,28.19,1.72,51.3-13.87,52.64-35.09h0s1.63-20.36,1.63-20.36Z"/><path class="cls-6" d="M634.82,347.79c8.53-18.02,24.37-45.68,52.4-72.04,24.54-23.07,49.25-36.51,66.43-44.19,17.48,8.42,34.97,16.83,52.45,25.25-5.63,15.16-14.17,33.52-27.35,52.6-24.9,36.05-54.59,57.64-74.21,69.5-23.24-10.38-46.48-20.75-69.72-31.13Z"/><path class="cls-24" d="M541.48,329.29l254.96,125.39c.83.23,13.37,3.43,20.92-4.35,4.17-4.3,4.63-9.68,4.72-10.84.95-11.12-9.44-23.21-25.65-30.78-84.99-41.8-169.97-83.59-254.96-125.39-9.36-2.13-18.74-.69-22.91,4.95-6.61,8.92,2.91,24.12,8.61,30.62,5.03,5.74,10.71,8.81,14.3,10.41Z"/><path class="cls-1" d="M537.13,334.31l254.96,125.39c.83.23,13.37,3.43,20.92-4.35,4.17-4.3,4.63-9.68,4.72-10.84.95-11.12-9.44-23.21-25.65-30.78-84.99-41.8-169.97-83.59-254.96-125.39-9.36-2.13-18.74-.69-22.91,4.95-6.61,8.92,2.91,24.12,8.61,30.62,5.03,5.74,10.71,8.81,14.3,10.41Z"/><g class="cls-25"><path class="cls-19" d="M716.74,400.89s19.68,28.54,76.24,74.03l-172.55-10.51-14.78-108.52,111.09,45Z"/></g><polygon class="cls-9" points="165.52 869.3 608.19 347.89 643.31 355.89 678.86 372.78 716.74 400.89 247.69 911.1 165.52 869.3"/><path class="cls-12" d="M856.5,204.62c-.16,22.2-23.76,38.77-52.71,37.01-28.95-1.77-52.29-21.19-52.14-43.4.16-22.2,23.76-38.77,52.71-37.01,28.95,1.77,52.29,21.19,52.14,43.4Z"/><polygon class="cls-5" points="643.31 355.89 193.89 883.74 214.23 894.08 678.86 372.78 643.31 355.89"/><path class="cls-11" d="M678.86,372.78s9.97,25.63,4.06,33.52c-3.98,5.31-326.73,347.35-454.31,495.1l19.09,9.71,469.05-510.21-37.88-28.11Z"/><polygon class="cls-2" points="643.31 355.89 650.22 359.17 193.89 883.74 643.31 355.89"/><path class="cls-23" d="M121.5,792.2l346.5,199.8-3.55,30s-188.64-82.53-192.84-85.94-171.21-92.56-171.21-92.56l21.1-51.3Z"/></g><g id="Graduation_Cap"><ellipse class="cls-21" cx="541.4" cy="514.42" rx="137.47" ry="61.6"/><path class="cls-18" d="M317.83,670.72s-25.78,38.11-19.09,36.12c6.69-1.99,16.37-7.81,16.93-3.26s14.48,43.97,25,43.13c10.53-.85,37.23,23.9,33.53,41.76-3.7,17.87-4.99,24.27-7.98,26.26s-37.15,24.72-37.15,22.88c0-1.85.26-8.8-3.14-4.69-3.4,4.11-9.67,15.06-9.67,15.06,0,0-37.41-10.84-40.68-5.58-3.28,5.26-7.71,31.01-7.71,31.01,0,0,5.29-26.03,12.12-29.01,6.82-2.99,38.97,10.42,40.25,7.71,1.28-2.7,5.42-14.08,5.42-14.08,0,0,.42,5.26,6.69,1.71,6.26-3.55,36.01-17.19,39.14-25.43,3.14-8.25,12.4-23.04,6.15-36.13-6.25-13.09-28.39-33.41-32.54-34.07-4.14-.67-17.86-16.33-25.88-39.81-8.02-23.48-16.5-2.57-15.5-3.85,1-1.28,14.11-29.72,14.11-29.72Z"/><path class="cls-18" d="M669.58,444.99s3.3,48.04-1.54,48.62c-4.83.58-22.12-.46-25.85,9.3-3.73,9.76-2.98,10.91-14.76,9.84-11.77-1.08-147.12-.41-151.04-2.42-3.92-2.02-8.73-6.41-9.89-.68-.53,2.61-3.26,4.84-6.33,6.35-3.67,1.8-7.81,2.57-9.25,1.73-2.64-1.55-23.47-1.54-25.32,29.11,0,0-1.85-30.82,7.07-33.13,8.92-2.31,17.96,1.58,22.96-2.75,5-4.32,13.46-5.34,12.27-10.16-1.19-4.82,3.63,4.9,11.09,6.03,7.46,1.13,82.64,3.27,88.83,2.19,6.2-1.08,66.94.09,67.08-4.31s1.29-17.02,10.72-16.13c9.43.9,11.81,1.29,11.81,1.29l8.05-2.31,4.1-42.55Z"/><path class="cls-18" d="M323.82,572.64s1.68,12.76,4.38,12.32,4.95-3.57,8.33.22,8.49,8.49,6.68,11.95c-1.81,3.45,6.1,13.23,6.1,13.23,0,0,1.9-17.3-3.01-18.47-4.91-1.17-11.48-14.05-15.66-11.28s-4.87-.79-6.83-7.97Z"/></g></svg>